<svg xmlns="http://www.w3.org/2000/svg" viewBox="0 0 39.22 33.29"><defs><style>.cls-1{fill:#d8d8d8;}</style></defs><title>stats (3)</title><g id="Camada_2" data-name="Camada 2"><g id="Camada_1-2" data-name="Camada 1"><path id="stats" class="cls-1" d="M38,29.09H36.3V10.26A1.82,1.82,0,0,0,34.54,8.4H29.16a1.71,1.71,0,0,0-1.61,1.86V29.09H24.3c0-.36,0-.51,0-.74v-26C24.31,1,23.52,0,22.54,0H17.16a2.19,2.19,0,0,0-1.93,2.37L15.2,29v.09H12.64V16.75c0-.69-.82-1.24-1.8-1.24H5.47c-1,0-1.9.55-1.9,1.24V29.09H1.12c-.62,0-1.12.21-1.12.56v3c0,.35.5.62,1.12.62H38c.61,0,1.25-.27,1.25-.62v-3C39.22,29.3,38.58,29.09,38,29.09Z"/></g></g></svg>