<svg xmlns="http://www.w3.org/2000/svg" viewBox="0 0 38.91 45.54"><defs><style>.cls-1{fill:#fff;}</style></defs><title>write (2)</title><g id="Camada_2" data-name="Camada 2"><g id="Camada_1-2" data-name="Camada 1"><g id="write"><polygon class="cls-1" points="23.51 30.13 23.51 30.13 23.51 30.13 23.51 30.13"/><path class="cls-1" d="M31.86,19.5V.75C31.86.29,31.51,0,31,0H1C.44,0,0,.29,0,.75V36.62a1,1,0,0,0,1,.9h12.4c2-1.77,4-3.82,6-5.77C23.52,27.66,27.61,23.49,31.86,19.5ZM27.26,6.26c0,.65-.28,1.17-.62,1.17H5.22c-.34,0-.62-.52-.62-1.17V6.13c0-.65.28-1.17.62-1.17H26.64c.34,0,.62.52.62,1.17Zm0,5.66c0,.65-.28,1.18-.62,1.18H5.22c-.34,0-.62-.53-.62-1.18V11.8c0-.65.28-1.18.62-1.18H26.64c.34,0,.62.53.62,1.18Zm0,5.66c0,.65-.28,1.18-.62,1.18H5.22c-.34,0-.62-.53-.62-1.18v-.12c0-.65.28-1.18.62-1.18H26.64c.34,0,.62.53.62,1.18Z"/><path class="cls-1" d="M19.58,43.55a6.59,6.59,0,0,0-4.3-4.45L13,45.54Z"/><path class="cls-1" d="M33.5,21.65a10.07,10.07,0,0,1,2.42,1.9A10.51,10.51,0,0,1,37.75,26l.12.28.65-.62a1.24,1.24,0,0,0,.39-.94c0-1.35-1.48-3.28-3.09-4a1.74,1.74,0,0,0-2,.12l-.65.62Z"/><path class="cls-1" d="M34.83,24.6c-1.48-1.54-2.65-2-2.88-1.87L16.23,37.84a8,8,0,0,1,4.64,4.81L36.6,27.54C36.7,27.32,36.32,26.14,34.83,24.6Z"/></g></g></g></svg>