<svg xmlns="http://www.w3.org/2000/svg" viewBox="0 0 31.57 37.17"><defs><style>.cls-1{fill:#d8d8d8;}</style></defs><title>Ativo 31</title><g id="Camada_2" data-name="Camada 2"><g id="Camada_1-2" data-name="Camada 1"><path class="cls-1" d="M31.57,19.33h0V.75c0-.46-.34-.75-.88-.75H1C.44,0,0,.29,0,.75V36.28a1,1,0,0,0,1,.89h29.1a1.5,1.5,0,0,0,1.5-1.5ZM4.56,6.08c0-.65.27-1.17.61-1.17H26.39c.34,0,.61.52.61,1.17V6.2c0,.64-.27,1.17-.61,1.17H5.17c-.34,0-.61-.53-.61-1.17Zm0,5.61c0-.65.27-1.17.61-1.17H26.39c.34,0,.61.52.61,1.17v.12c0,.64-.27,1.17-.61,1.17H5.17c-.34,0-.61-.53-.61-1.17Zm0,5.61c0-.65.27-1.17.61-1.17H26.39c.34,0,.61.52.61,1.17v.12c0,.65-.27,1.17-.61,1.17H5.17c-.34,0-.61-.52-.61-1.17Z"/></g></g></svg>