<svg xmlns="http://www.w3.org/2000/svg" viewBox="0 0 43.95 37.3"><defs><style>.cls-1{fill:#fff;}</style></defs><title>stats (2)</title><g id="Camada_2" data-name="Camada 2"><g id="Camada_1-2" data-name="Camada 1"><path id="stats" class="cls-1" d="M42.54,32.6H40.68V11.49a2,2,0,0,0-2-2.07h-6a1.9,1.9,0,0,0-1.81,2.07V32.6H27.23c0-.4,0-.57,0-.84V2.66c0-1.56-.89-2.66-2-2.66h-6a2.45,2.45,0,0,0-2.16,2.66l0,29.83v.11H14.16V18.77c0-.77-.91-1.39-2-1.39h-6C5,17.38,4,18,4,18.77V32.6H1.25c-.69,0-1.25.23-1.25.62v3.39c0,.39.56.69,1.25.69H42.54c.7,0,1.41-.3,1.41-.69V33.22C44,32.83,43.24,32.6,42.54,32.6Z"/></g></g></svg>