<svg xmlns="http://www.w3.org/2000/svg" viewBox="0 0 33.81 34.09"><defs><style>.cls-1{fill:#d8d8d8;}</style></defs><title>bubble (3)</title><g id="Camada_2" data-name="Camada 2"><g id="Camada_1-2" data-name="Camada 1"><g id="bubble"><path class="cls-1" d="M33.81,15.89C33.81,7.11,26.24,0,16.91,0S0,7.11,0,15.89,7.57,31.77,16.91,31.77a17.65,17.65,0,0,0,8-1.91c2.67,1.44,7.69,4.23,7.69,4.23l-2-9A15.18,15.18,0,0,0,33.81,15.89Zm-23.76,1.8a1.83,1.83,0,1,1,1.83-1.83A1.83,1.83,0,0,1,10.05,17.69Zm6.27,0a1.83,1.83,0,1,1,1.83-1.83A1.83,1.83,0,0,1,16.32,17.69Zm6.28,0a1.83,1.83,0,1,1,1.83-1.83A1.83,1.83,0,0,1,22.6,17.69Z"/></g></g></g></svg>