<svg xmlns="http://www.w3.org/2000/svg" viewBox="0 0 33.54 33.82"><defs><style>.cls-1{fill:#66669e;}</style></defs><title>bubble (2)</title><g id="Camada_2" data-name="Camada 2"><g id="Camada_1-2" data-name="Camada 1"><g id="bubble"><path class="cls-1" d="M33.54,15.76C33.54,7.05,26,0,16.77,0S0,7.05,0,15.76,7.51,31.51,16.77,31.51a17.52,17.52,0,0,0,8-1.89c2.65,1.43,7.63,4.2,7.63,4.2l-2-8.89A15.06,15.06,0,0,0,33.54,15.76ZM10,17.55a1.82,1.82,0,1,1,1.81-1.82A1.82,1.82,0,0,1,10,17.55Zm6.22,0A1.82,1.82,0,1,1,18,15.73,1.83,1.83,0,0,1,16.19,17.55Zm6.22,0a1.82,1.82,0,1,1,1.82-1.82A1.82,1.82,0,0,1,22.41,17.55Z"/></g></g></g></svg>