<svg xmlns="http://www.w3.org/2000/svg" viewBox="0 0 266.24 236.04"><defs><style>.cls-1{fill:#ededed;}</style></defs><title>Ativo 38</title><g id="Camada_2" data-name="Camada 2"><g id="Camada_1-2" data-name="Camada 1"><path class="cls-1" d="M61,236l-4.7-2.95c-1.13-.66-2.44-1.6-3.94-2.68l-1.68-1.21c-1.58-1.06-3.26-2.43-5.09-3.94l-2.17-1.77A128.57,128.57,0,0,1,26,205.23,124.36,124.36,0,0,1,.41,138.62,127.13,127.13,0,0,1,4.62,94.68,128.46,128.46,0,0,1,25.88,51.81a130.46,130.46,0,0,1,85-50.34c4-.59,8.79-1.08,12.53-1.26L132.77,0,136,.12a133.82,133.82,0,0,1,24.51,3.24,136.48,136.48,0,0,1,93.92,78,138.12,138.12,0,0,1,8.67,26.95c.66,2.83,1.07,5.51,1.45,8l1.06,8.86c.07.67.12,1.3.15,1.75l.52,8.49-41.71,1.05.09-8.52c0-.44,0-.74,0-1l-.32-6.26c-.13-1.6-.26-3.34-.56-5.21a98.31,98.31,0,0,0-4.79-19.79A99.73,99.73,0,0,0,206.78,72a102.79,102.79,0,0,0-54-39.42,105.24,105.24,0,0,0-18.89-3.9L123,28c-1.46,0-2.93,0-4.11,0l-1.82.07c-1,0-2,.05-3,.17A106,106,0,0,0,74.52,39.16,109.18,109.18,0,0,0,20.89,99.82a112.75,112.75,0,0,0-.72,73,112.26,112.26,0,0,0,13.21,27.09,119.75,119.75,0,0,0,14.95,18.15A117.59,117.59,0,0,0,59.82,228l4.44,3.26Z"/><path class="cls-1" d="M145.71,141.57l1.37-6.55a16.44,16.44,0,0,0-6.9-17l-5-3.4,5.81-1.74c21.9-6.59,70.22-20,70.7-20.09l18-5L214,98c-.44.28-43.45,28.23-62.6,40Z"/><path class="cls-1" d="M131.05,153.78a22.13,22.13,0,1,1,12.35-40.49h0a22.12,22.12,0,0,1,9.77,18.36,22.06,22.06,0,0,1-22.12,22.13Z"/></g></g></svg>